<?xml version="1.0" encoding="UTF-8" standalone="no"?>
<!-- Created with Inkscape (http://www.inkscape.org/) -->

<svg
   width="128"
   height="128"
   viewBox="0 0 33.866666 33.866666"
   version="1.1"
   id="svg1"
   xml:space="preserve"
   inkscape:version="1.4 (86a8ad7, 2024-10-11)"
   sodipodi:docname="domecek.svg"
   inkscape:export-filename="domecek.png"
   inkscape:export-xdpi="96"
   inkscape:export-ydpi="96"
   xmlns:inkscape="http://www.inkscape.org/namespaces/inkscape"
   xmlns:sodipodi="http://sodipodi.sourceforge.net/DTD/sodipodi-0.dtd"
   xmlns="http://www.w3.org/2000/svg"
   xmlns:svg="http://www.w3.org/2000/svg"><sodipodi:namedview
     id="namedview1"
     pagecolor="#ffffff"
     bordercolor="#666666"
     borderopacity="1.0"
     inkscape:showpageshadow="2"
     inkscape:pageopacity="0.0"
     inkscape:pagecheckerboard="0"
     inkscape:deskcolor="#d1d1d1"
     inkscape:document-units="mm"
     inkscape:zoom="5.709669"
     inkscape:cx="19.966131"
     inkscape:cy="77.850397"
     inkscape:window-width="2560"
     inkscape:window-height="1351"
     inkscape:window-x="-9"
     inkscape:window-y="-9"
     inkscape:window-maximized="1"
     inkscape:current-layer="layer2" /><defs
     id="defs1"><inkscape:path-effect
       effect="mirror_symmetry"
       start_point="17,14.966373"
       end_point="17,29.219044"
       center_point="17,22.092709"
       id="path-effect5"
       is_visible="true"
       lpeversion="1.2"
       lpesatellites=""
       mode="free"
       discard_orig_path="false"
       fuse_paths="false"
       oposite_fuse="false"
       split_items="false"
       split_open="false"
       link_styles="false" /></defs><path
     style="display:none;fill:#ffff00;stroke:#ffff00;stroke-width:0.264583px;stroke-linecap:butt;stroke-linejoin:miter;stroke-opacity:1"
     d="M 16.933333,0 V 13.762838 33.866667"
     id="path2"
     sodipodi:nodetypes="ccc" /><g
     inkscape:label="Vrstva 1"
     inkscape:groupmode="layer"
     id="layer1"
     style="display:inline"
     transform="matrix(1.1868176,0,0,1.1868176,-3.1634448,-2.741206)"><path
       fill="currentColor"
       d="m 26.323396,12.167267 c -6.84e-4,-0.834799 -1.252733,-0.834799 -1.252048,0 z m -17.5286713,0 c -8.235e-4,-0.834662 -1.2528689,-0.834662 -1.2520473,0 z m 18.9635183,2.950104 c 0.590966,0.590632 1.477416,-0.296654 0.88645,-0.887287 z M 16.933039,3.3946528 17.376266,2.951009 c -0.244606,-0.2454553 -0.641846,-0.2454553 -0.886452,0 z M 5.2213803,14.230084 c -0.5898574,0.591524 0.2965926,1.47881 0.8864501,0.887287 z M 23.19328,26.579417 v -1.253232 z m 3.130116,-3.561876 V 12.167267 h -1.252048 v 10.850274 z m -17.5286713,0 V 12.167267 H 7.5426774 V 23.017541 Z M 28.644693,14.230084 17.376266,2.951009 16.489814,3.8382966 27.758243,15.117371 Z M 16.489814,2.951009 5.2213803,14.230084 6.1078304,15.117371 17.376266,3.8382966 Z"
       id="path1"
       style="fill:#b22222;fill-opacity:1;stroke-width:1.25264"
       sodipodi:nodetypes="ccccccccccccccccccccccccccccccccccccccc" /></g><g
     inkscape:groupmode="layer"
     id="layer2"
     inkscape:label="Vrstva 2"><circle
       style="fill:none;stroke:#b22222;stroke-width:0.82858;stroke-dasharray:none;stroke-opacity:1"
       id="path3"
       cx="16.933334"
       cy="12.7"
       r="1.1732101" /><path
       style="fill:none;stroke:#b22222;stroke-width:0.79375;stroke-linecap:butt;stroke-linejoin:miter;stroke-dasharray:none;stroke-opacity:1"
       d="M 16.933333,14.179894 V 28.960667"
       id="path4"
       sodipodi:nodetypes="cc" /><circle
       style="fill:none;stroke:#b22222;stroke-width:0.82858;stroke-dasharray:none;stroke-opacity:1"
       id="path3-9"
       cx="16.933332"
       cy="29.897917"
       r="1.1732101" /><g
       id="g5"
       inkscape:path-effect="#path-effect5"><path
         style="fill:none;stroke:#b22222;stroke-width:0.82858;stroke-dasharray:none;stroke-opacity:1"
         id="path3-2"
         sodipodi:type="arc"
         sodipodi:cx="21.960417"
         sodipodi:cy="16.139584"
         sodipodi:rx="1.1732101"
         sodipodi:ry="1.1732101"
         d="m 23.133627,16.139584 c 0,0.647946 -0.525264,1.17321 -1.17321,1.17321 -0.647946,0 -1.17321,-0.525264 -1.17321,-1.17321 0,-0.647946 0.525264,-1.173211 1.17321,-1.173211 0.647946,0 1.17321,0.525265 1.17321,1.173211 z m -12.267254,0 c 0,0.647946 0.525264,1.17321 1.17321,1.17321 0.647946,0 1.17321,-0.525264 1.17321,-1.17321 0,-0.647946 -0.525264,-1.173211 -1.17321,-1.173211 -0.647946,0 -1.17321,0.525265 -1.17321,1.173211 z" /><path
         style="fill:none;stroke:#b22222;stroke-width:0.82858;stroke-dasharray:none;stroke-opacity:1"
         id="path3-2-1"
         sodipodi:type="arc"
         sodipodi:cx="24.870832"
         sodipodi:cy="28.045834"
         sodipodi:rx="1.17321"
         sodipodi:ry="1.1732101"
         d="m 26.044042,28.045834 c 0,0.647946 -0.525264,1.17321 -1.17321,1.17321 -0.647946,0 -1.17321,-0.525264 -1.17321,-1.17321 0,-0.647946 0.525264,-1.173211 1.17321,-1.173211 0.647946,0 1.17321,0.525265 1.17321,1.173211 z m -18.0880845,0 c 0,0.647946 0.5252641,1.17321 1.1732101,1.17321 0.647946,0 1.1732104,-0.525264 1.1732104,-1.17321 0,-0.647946 -0.5252644,-1.173211 -1.1732104,-1.173211 -0.647946,0 -1.1732101,0.525265 -1.1732101,1.173211 z" /><path
         style="fill:none;stroke:#b22222;stroke-width:0.79375;stroke-linecap:butt;stroke-linejoin:miter;stroke-dasharray:none;stroke-opacity:1"
         d="m 21.918594,16.913925 -10e-7,9.128885 1.94626,1.297507 m -11.783447,-10.426392 1e-6,9.128885 -1.94626,1.297507"
         id="path5"
         sodipodi:nodetypes="ccc"
         inkscape:original-d="m 21.918594,16.913925 -10e-7,9.128885 1.94626,1.297507" /></g></g></svg>
